<svg width="372" height="587" viewBox="0 0 372 587" fill="none" xmlns="http://www.w3.org/2000/svg">
<g opacity="0.1" clip-path="url(#clip0_21_19)">
<path d="M370.957 540.825C367.762 531.546 316.771 472.689 304.39 458.527C302.96 452.281 300.273 446.388 296.491 441.206C291.15 434.722 284.659 429.271 277.341 425.122C276.498 416.77 273.325 391.275 265.115 374.572C259.39 362.951 258.902 348.281 258.458 335.356C258.456 329.154 257.944 322.961 256.927 316.842C256.24 313.528 255.707 310.081 255.219 306.767C253.643 296.472 252.024 285.867 244.968 278.046C239.62 272.081 238.2 259.907 238.022 254.583C239.902 249.813 241.076 244.797 241.506 239.692V239.471C242.179 232.164 241.639 224.797 239.908 217.665C235.626 199.548 218.008 182.315 211.174 176.107C211.307 175.709 211.418 175.311 211.551 174.892C212.736 175.267 213.969 175.475 215.212 175.51C216.132 175.519 217.044 175.346 217.897 175.002C219.539 174.317 222.202 173.213 222.978 162.895C227.105 161.238 229.413 158.476 229.302 155.03C229.191 151.583 225.707 147.761 222.29 144.977C221.34 138.274 219.325 131.763 216.321 125.69C208.888 111.064 196.351 103.331 180.353 103.331C154.791 103.331 139.769 118.355 138.815 144.646C138.416 145.007 138.038 145.39 137.683 145.795C136.488 147.303 135.717 149.099 135.448 151.001C135.179 152.904 135.422 154.843 136.152 156.62C137.306 160.089 138.748 163.602 139.836 166.121C139.11 166.507 138.306 166.726 137.484 166.761H135.842C132.535 166.761 115.65 167.049 106.707 172.528L95.8791 179.156C94.5699 177.609 92.9723 175.665 91.4413 173.787C93.8055 172.241 95.9607 170.4 97.8539 168.308C98.6305 167.247 100.494 164.751 97.4545 154.787C96.5072 151.639 95.305 148.572 93.8599 145.618C101.737 141.199 136.019 105.85 155.235 83.3145C178.445 55.9408 199.613 21.8506 200.989 16.4598C201.256 15.3026 201.244 14.099 200.955 12.9472C200.665 11.7954 200.107 10.7279 199.325 9.83179C195.064 4.35263 183.792 0.0665079 173.652 0.0665079C171.763 0.0616782 169.878 0.21689 168.016 0.530468C163.711 1.23746 160.361 5.85498 151.396 18.2052C143.586 28.9205 131.803 45.115 114.851 64.3584C88.4236 94.3612 70.4726 114.621 65.0141 120.697C64.0155 120.697 62.7952 120.542 61.5526 120.542C55.3618 120.542 51.0127 122.088 48.6385 125.159C48.0172 125.955 46.7524 127.369 45.288 128.937C38.9641 135.831 33.1283 142.547 30.9982 148.821C26.468 150.478 22.4784 153.335 19.4599 157.084C18.1285 158.653 16.5975 160.266 15.0221 161.967C9.11976 168.197 2.99557 174.627 2.99557 182.381C2.99557 192.809 5.21446 200.365 9.38601 204.828C9.74103 205.204 10.1405 205.557 10.5621 205.933C11.0393 207.566 11.9073 209.06 13.0916 210.285C13.9196 211.258 14.9357 212.054 16.0793 212.627C17.2229 213.2 18.4707 213.539 19.7483 213.621C20.4441 213.621 21.1347 213.502 21.7897 213.268C22.6276 217.072 23.2278 220.923 23.587 224.801C23.587 225.618 23.587 226.502 23.587 227.43C23.1987 233.585 24.6008 239.722 27.6254 245.105C28.158 246.003 28.6683 246.909 29.1565 247.822C32.507 253.832 36.3014 260.636 44.6888 260.636C45.4991 260.635 46.3079 260.569 47.1074 260.437C57.1742 258.276 66.8849 254.714 75.9533 249.855C78.5223 251.082 81.3361 251.716 84.1854 251.711C85.8088 251.707 87.4258 251.507 89.0004 251.114C95.0124 249.594 100.293 246.011 103.912 240.995C104.622 241.68 105.42 242.409 106.264 243.205C106.722 249.424 108.435 255.488 111.3 261.034C112.721 264.133 114.329 267.143 116.116 270.048C120.144 277.218 121.592 285.543 120.221 293.644C119.687 296.382 119.397 299.162 119.355 301.951V303.939C119.355 310.744 119.355 314.5 112.698 321.857C111.256 323.426 109.703 325.039 108.083 326.762C98.1308 336.787 89.2108 347.778 81.4562 359.571C75.9044 356.607 69.7716 354.88 63.483 354.511C60.6109 354.449 57.7679 355.094 55.2065 356.389C47.2628 360.521 45.0439 370.662 42.825 380.405C41.8759 385.438 40.4342 390.366 38.5203 395.119V395.318C32.7511 407.845 24.874 424.901 30.0219 438.488C29.4449 446.619 25.8503 496.528 23.0767 515.108C22.056 522.001 20.8578 528.983 19.704 535.147C18.1232 542.718 16.9969 550.376 16.3312 558.08C11.0502 559.847 3.23966 563.427 1.19826 569.458C-0.576863 574.65 -0.354977 578.693 1.88612 581.808C4.12722 584.923 8.07685 586.514 13.8238 586.514C15.2217 586.514 17.4628 586.514 20.2809 586.647C24.9406 586.779 31.3754 586.956 38.0321 586.956C54.1414 586.956 65.6575 585.962 73.1796 583.885C78.0612 582.559 85.783 578.295 82.8097 564.686C81.7003 559.339 86.9147 517.98 90.0433 493.28C92.1291 476.865 93.9264 462.659 94.348 456.517C95.3267 454.443 96.4155 452.422 97.6098 450.463C99.7054 447.057 101.538 443.497 103.091 439.814C110.87 437.346 118.287 433.861 125.146 429.452C134.964 423.411 144.452 416.855 153.571 409.811C158.186 406.364 162.446 403.183 166.884 400.046C170.812 397.35 175.138 394.589 177.557 394.589C179.133 394.589 181.13 395.914 185.212 399.626C191.492 405.238 203.185 423.664 209.243 433.429C207.212 435.906 205.993 438.943 205.751 442.132C205.509 445.32 206.255 448.506 207.89 451.258C210.974 457.003 217.009 463.454 222.867 469.684L226.684 473.816C229.122 476.308 231.349 478.998 233.34 481.858C234.228 483.25 234.96 484.597 235.67 485.923C238.799 491.623 242.016 497.544 253.422 498.671C258.947 505.122 280.182 529.911 291.587 542.681C294.826 546.304 297.955 550.126 300.973 553.838C309.405 564.2 316.882 573.369 325.004 575.755C325.526 577.98 326.602 580.039 328.132 581.742C329.64 583.296 331.468 584.507 333.49 585.293C335.512 586.078 337.681 586.42 339.848 586.293C350.809 586.293 358.043 585.94 364.877 584.084C366.548 583.56 368.039 582.581 369.18 581.257C370.321 579.933 371.067 578.318 371.334 576.594C372.621 569.429 371.677 562.044 368.627 555.429C370.343 553.452 371.47 551.038 371.881 548.457C372.293 545.877 371.973 543.234 370.957 540.825ZM352.03 554.081C351.253 553.926 350.166 553.705 348.812 553.507C347.459 553.308 345.906 553.308 344.197 553.33C342.418 553.456 340.647 553.685 338.894 554.015C337.167 554.509 335.477 555.122 333.835 555.849C332.454 556.588 331.127 557.422 329.863 558.345C329.028 559.026 328.243 559.765 327.511 560.554C327.243 560.873 326.991 561.205 326.756 561.549C326.756 561.549 327.156 561.35 327.888 561.063C328.77 560.611 329.682 560.22 330.617 559.892C329.009 561.328 327.684 563.052 326.712 564.973L315.884 551.408L338.206 534.153L349.656 547.541C349.988 548.05 350.366 548.536 350.721 549.022C351.958 551.015 352.963 553.142 353.716 555.362C352.585 555.186 351.497 555.031 350.255 554.943C350.943 554.788 351.542 554.678 352.03 554.611L353.228 554.324L352.03 554.081ZM239.886 470.303L213.681 435.97L213.903 435.727C214.924 434.931 216.676 433.517 219.006 432.125L246.277 468.778C244.198 469.481 242.059 469.992 239.886 470.303ZM249.45 467.563L221.736 430.424C224.048 429.097 226.441 427.916 228.903 426.889L255.64 464.36C253.656 465.572 251.587 466.643 249.45 467.563ZM258.325 462.548L232.076 425.696C234.493 424.871 236.97 424.236 239.487 423.796L264.228 457.732C262.412 459.486 260.46 461.097 258.392 462.548H258.325ZM266.491 455.39L243.17 423.376C244.869 423.255 246.575 423.255 248.274 423.376L249.694 423.509H251.003C252.923 423.482 254.842 423.578 256.75 423.796C258.858 424.061 261.077 424.459 263.274 424.945C265.47 425.431 267.6 426.271 269.575 427.022C271.354 427.742 273.088 428.568 274.767 429.496C275.96 430.172 277.115 430.909 278.229 431.706L279.472 432.634L278.007 432.125C277.097 431.772 275.788 431.374 274.213 430.8C272.637 430.225 270.796 429.717 268.865 429.077C266.935 428.436 264.805 427.861 262.674 427.375C260.544 426.889 258.436 426.293 256.439 425.917C254.975 425.674 253.599 425.365 252.334 425.144L270.707 450.375C269.413 452.118 268.028 453.792 266.557 455.39H266.491ZM35.547 191.285C37.2852 191.581 39.0729 191.269 40.6061 190.401L28.5574 202.928L33.9493 195.925L23.3651 202.972C23.0677 202.559 22.7492 202.161 22.411 201.779C21.0858 200.307 19.371 199.235 17.4629 198.686C19.8149 195.947 21.9007 193.494 23.0767 192.058C24.9044 192.989 26.8427 193.687 28.8458 194.135C29.6852 194.379 30.5686 194.434 31.432 194.297C32.2954 194.159 33.1173 193.832 33.8384 193.34C34.5608 192.797 35.1459 192.093 35.547 191.285ZM40.4729 176.836C39.4966 175.577 38.254 174.141 36.9227 172.66C35.5913 171.18 33.9272 169.832 32.3295 168.44C30.6319 167.083 28.7769 165.934 26.8044 165.016C25.0198 164.311 23.1453 163.858 21.235 163.668C20.7915 163.646 20.3471 163.646 19.9036 163.668C21.0575 162.431 22.1226 161.216 23.2098 160.023C23.6758 159.471 24.1418 158.962 24.6299 158.476L25.2512 158.631C29.141 159.397 32.8852 160.769 36.3458 162.696C38.1876 163.658 39.9208 164.814 41.5158 166.143C42.9858 167.264 44.3521 168.513 45.5986 169.877L46.0646 170.34L46.7746 171.754C47.0853 172.373 48.0394 174.892 47.1962 176.173C46.5971 177.101 44.9773 177.543 42.4256 177.432H40.9833L40.4729 176.836ZM32.1076 153.417C35.62 153.704 39.0034 154.867 41.9464 156.797C44.8894 158.727 47.2975 161.364 48.9491 164.464C49.2942 165.288 49.3366 166.207 49.0688 167.06C48.801 167.912 48.2401 168.644 47.4847 169.125L47.2184 169.28L46.9743 168.816C44.7595 165.13 41.6158 162.083 37.8546 159.979C35.7896 158.932 33.6173 158.11 31.3754 157.526C29.7358 157.208 28.0742 157.016 26.4051 156.952C28.0946 155.465 30.0221 154.27 32.1076 153.417ZM134.044 217.267C134.044 217.598 134.044 217.996 134.177 218.504C134.466 221.68 134.072 224.881 133.024 227.894C132.794 228.646 132.52 229.383 132.203 230.103C132.203 230.103 132.846 229.44 133.711 228.358C134.774 226.984 135.689 225.503 136.441 223.939C137.232 222.343 137.856 220.669 138.305 218.946C138.793 219.101 139.259 219.255 139.747 219.366C141.527 219.774 143.338 220.04 145.161 220.161C146.235 226.55 147.891 232.829 150.109 238.918C148.512 239.095 146.626 239.272 144.717 239.427C139.747 239.846 134.732 240.178 134.732 240.178C134.732 240.178 139.458 241.879 144.229 243.47L145.76 243.978C143.852 243.757 141.944 243.536 140.035 243.271C135.442 242.608 129.606 242.431 125.612 240.023C121.317 237.463 117.182 234.644 113.231 231.583L82.5434 207.789C81.3399 206.391 80.6718 204.615 80.6574 202.774C80.8791 201.11 81.5203 199.529 82.5212 198.178C84.7401 194.776 86.9591 191.55 89.3333 188.236C90.9753 186.933 92.5729 185.74 94.0596 184.767C97.5211 187.993 106.929 196.632 114.718 203.26C122.506 209.888 128.342 214.704 134.044 217.267ZM179.332 200.145C178.733 199.813 177.957 199.393 177.113 198.841C174.582 197.354 172.157 195.693 169.857 193.87C167.544 192.012 165.405 189.949 163.467 187.706C161.847 185.85 160.893 184.502 160.893 184.502C160.893 184.502 161.581 186.005 162.824 188.148C164.376 190.787 166.158 193.286 168.149 195.615C168.926 196.521 169.724 197.405 170.545 198.244L168.881 201.139L165.752 206.485L171.544 204.276L173.275 203.591C172.403 204.808 171.235 205.785 169.88 206.43C168.526 207.075 167.029 207.368 165.531 207.281C163.312 207.126 152.639 205.867 153.216 196.963C153.83 192.012 155.223 187.189 157.343 182.669C157.865 182.848 158.411 182.953 158.963 182.978C159.55 182.971 160.129 182.833 160.655 182.573C161.181 182.313 161.642 181.938 162.003 181.476C164.576 178.25 164.665 171.025 164.466 166.872L178.511 167.026L176.581 167.314C175.471 167.513 174.473 167.888 173.607 168.109C172.742 168.33 172.032 168.661 171.522 168.794L170.723 169.103L171.566 169.258C172.3 169.375 173.042 169.441 173.785 169.457C174.695 169.457 175.76 169.457 176.847 169.457C177.978 169.39 179.111 169.39 180.242 169.457H181.152L181.573 169.832C181.345 169.811 181.114 169.811 180.885 169.832L178.356 169.965L175.871 170.473C175.118 170.664 174.377 170.9 173.652 171.18C173.146 171.387 172.657 171.631 172.187 171.909L171.655 172.241H172.276L173.23 172.373C173.63 172.484 174.207 172.727 174.85 172.859C175.52 173.015 176.169 173.252 176.78 173.566H176.98L177.291 173.743C177.579 173.885 177.885 173.989 178.201 174.052L179.643 174.273C180.167 174.315 180.694 174.315 181.218 174.273C181.538 174.231 181.851 174.149 182.15 174.03L182.705 173.765C183.412 173.426 184.101 173.05 184.769 172.638C185.066 172.474 185.342 172.273 185.59 172.042L186.144 172.417L186.388 172.572L186.677 172.771C187.044 172.985 187.393 173.229 187.72 173.5C187.989 173.722 188.27 173.929 188.563 174.118L188.874 174.627C189.017 174.796 189.19 174.938 189.384 175.046C189.384 175.046 189.384 174.892 189.384 174.671V174.251C189.42 173.805 189.486 173.362 189.584 172.925C189.796 172.084 189.796 171.204 189.584 170.363C189.145 169.34 188.359 168.504 187.365 167.999C186.523 167.639 185.655 167.343 184.769 167.115H184.613C192.385 167.023 200.144 166.455 207.845 165.414C207.668 166.121 207.468 166.938 207.224 167.844C206.711 167.602 206.176 167.41 205.626 167.269C204.182 166.871 202.687 166.685 201.188 166.717H199.99C199.658 166.741 199.324 166.741 198.992 166.717C198.373 166.582 197.726 166.651 197.15 166.916C196.828 167.124 196.553 167.396 196.343 167.715C196.133 168.035 195.992 168.395 195.93 168.772C195.888 169.29 195.925 169.811 196.041 170.318C196.041 170.318 196.041 170.318 196.041 170.451C196.041 170.584 196.041 170.981 196.041 171.511C196.138 172.518 196.317 173.515 196.573 174.494C196.884 175.687 197.261 177.079 197.66 178.559C197.816 179.222 198.015 180.15 198.26 180.879C198.507 181.59 198.634 182.336 198.637 183.088C198.61 183.379 198.525 183.661 198.388 183.919C198.251 184.177 198.064 184.405 197.838 184.591C197.595 184.819 197.327 185.019 197.039 185.187H195.93C195.223 185.153 194.52 185.079 193.822 184.966C193.035 184.935 192.248 184.979 191.47 185.099C191.056 185.156 190.661 185.308 190.316 185.541C190.095 185.712 189.857 185.86 189.606 185.983C189.118 186.248 188.718 186.557 188.43 186.712L187.986 187.021H188.519H188.807H189.206C189.939 187.021 190.959 187.22 192.224 187.286C193.704 187.49 195.21 187.415 196.662 187.065C197.539 186.813 198.355 186.385 199.058 185.806C199.478 185.475 199.828 185.065 200.087 184.598C200.346 184.131 200.509 183.618 200.567 183.088C200.516 182.163 200.314 181.253 199.968 180.393C199.68 179.598 199.524 178.957 199.28 178.184C198.792 176.637 198.082 175.378 197.616 174.229C197.616 174.074 197.483 173.942 197.416 173.765C197.621 173.975 197.861 174.147 198.126 174.273C198.569 174.472 199.041 174.599 199.524 174.649C199.986 174.739 200.461 174.739 200.922 174.649C201.656 174.423 202.34 174.064 202.941 173.588C203.603 173.006 204.352 172.529 205.16 172.174L205.582 172.02L206.137 171.843C204.669 177.569 202.823 183.193 200.612 188.678C196.507 197.891 194.487 201.426 189.517 201.934C186.024 202.224 182.515 201.607 179.332 200.145ZM220.338 190.954C221.713 192.456 223.355 194.157 224.975 196.123C226.595 198.09 228.237 200.255 229.79 202.486C231.253 204.721 232.572 207.045 233.74 209.446C234.744 211.545 235.59 213.716 236.269 215.941C236.738 217.518 237.086 219.128 237.312 220.758C237.468 221.929 237.534 222.614 237.534 222.614C237.534 222.614 237.357 221.951 237.002 220.824C236.647 219.697 236.114 218.106 235.382 216.251C234.528 214.137 233.558 212.072 232.475 210.064C231.256 207.776 229.9 205.563 228.415 203.436C226.972 201.227 225.397 199.018 223.866 197.051C222.335 195.085 220.915 193.163 219.628 191.594C218.341 190.026 217.409 188.656 216.632 187.75L215.523 186.248L216.876 187.529C217.697 188.325 218.94 189.473 220.338 190.954ZM237.667 239.316C237.667 239.316 237.401 238.454 236.979 236.974C236.558 235.494 235.87 233.395 235.027 230.921C234.038 228.101 232.867 225.348 231.521 222.68C229.985 219.654 228.093 216.821 225.885 214.24C223.727 211.633 221.156 209.394 218.274 207.612C215.769 206.044 213.016 204.909 210.131 204.254C208.073 203.777 205.962 203.569 203.851 203.635C203.25 203.644 202.65 203.688 202.054 203.768H201.433L202.032 203.613C202.453 203.613 203.052 203.392 203.807 203.26C205.961 202.925 208.154 202.925 210.308 203.26C213.37 203.741 216.317 204.774 219.006 206.309C222.066 208.115 224.809 210.406 227.127 213.091C229.38 215.788 231.281 218.757 232.786 221.929C234.066 224.692 235.106 227.56 235.892 230.501C236.624 233.064 236.979 235.251 237.29 236.775C237.601 238.3 237.667 239.316 237.667 239.316ZM206.003 171.6L205.87 171.401C205.735 171.2 205.586 171.009 205.427 170.827C205.205 170.672 205.027 170.363 204.761 170.23L204.273 169.921L204.628 169.788C205.044 169.569 205.438 169.31 205.804 169.015C205.962 168.886 206.11 168.746 206.248 168.595C206.506 168.573 206.766 168.573 207.024 168.595L206.225 171.578L206.003 171.6ZM207.734 209.159C210.517 209.546 213.273 210.099 215.989 210.816C218.903 213.188 221.311 216.116 223.071 219.428C224.832 222.741 225.909 226.37 226.24 230.103L195.708 241.481L216.499 238.941C202.202 242.865 187.46 244.958 172.631 245.171C169.458 245.171 166.285 245.171 163.112 245.06C163.29 245.458 163.467 245.856 163.667 246.231C164.665 248.308 165.642 250.208 166.529 251.865L168.748 255.864L169.636 257.433C169.082 257.177 168.548 256.882 168.038 256.549C166.679 255.689 165.415 254.689 164.266 253.566C162.601 252.01 161.113 250.276 159.828 248.397C159.162 247.358 158.43 246.298 157.831 245.149C157.232 244 156.655 242.807 156.1 241.636C155.546 240.465 155.146 239.184 154.725 237.991C154.303 236.797 153.97 235.56 153.637 234.389L153.504 233.837C152.094 229.307 150.96 224.695 150.109 220.029C151.818 220.029 153.659 219.83 155.834 219.653C158.008 219.476 161.026 219.277 164.488 219.079C169.874 218.495 175.099 216.898 179.887 214.373C187.653 211.037 195.619 207.502 207.734 209.247V209.159ZM74.3113 195.107C73.5792 194.309 73.0201 193.37 72.6689 192.347C72.3177 191.325 72.1818 190.241 72.2699 189.164C72.7076 187.653 73.5336 186.283 74.6663 185.187C78.1747 181.348 82.1995 178.009 86.6262 175.267C88.0685 177.123 89.6883 179.089 91.064 180.791C85.0822 185.114 79.478 189.933 74.3113 195.196V195.107ZM44.7776 181.564C45.9079 181.537 47.0161 181.247 48.0139 180.717C49.0117 180.188 49.8715 179.434 50.5246 178.515C51.0982 177.472 51.437 176.317 51.5175 175.131C51.5979 173.944 51.4181 172.754 50.9905 171.644C51.845 170.824 52.4917 169.813 52.8774 168.695C53.2631 167.578 53.3769 166.385 53.2094 165.215C54.3396 166.376 55.2044 167.768 55.7444 169.293C56.2844 170.818 56.4869 172.442 56.3381 174.052C55.1399 175.312 50.103 180.68 44.2007 186.712C44.8085 185.068 45.0065 183.301 44.7776 181.564ZM14.1789 202.288C14.5955 201.943 15.1243 201.762 15.6655 201.779C17.3346 201.93 18.879 202.722 19.9702 203.989C21.9228 206.198 22.4998 208.739 21.2572 209.866C20.8562 210.224 20.3313 210.414 19.7927 210.396C18.1236 210.246 16.5792 209.453 15.488 208.187C13.5354 205.999 12.9585 203.37 14.1789 202.221V202.288ZM26.2053 210.197L30.6432 205.778C31.7926 207.801 32.7366 209.932 33.4612 212.141C33.9424 213.695 34.6933 215.153 35.6801 216.449C32.7159 216.143 29.8141 215.399 27.0707 214.24C26.6713 212.495 26.3828 210.992 26.2053 210.131V210.197ZM58.7124 216.692C58.2359 212.93 57.3658 209.228 56.1162 205.646C56.8603 203.589 57.7348 201.582 58.7345 199.636C59.8964 197.108 60.5378 194.374 60.6206 191.594C61.821 194.079 63.417 196.355 65.3469 198.333C66.6779 199.701 68.0934 200.985 69.585 202.177C70.5169 202.95 71.3601 203.657 72.2921 204.563C69.7847 206.552 66.5451 209.137 63.838 211.324C61.9068 212.864 60.184 214.646 58.7124 216.626V216.692ZM66.9445 215.035C69.7403 212.826 73.0687 210.109 75.5983 208.12C79.8586 212.539 86.5819 220.537 92.7282 228.004C91.4547 229.46 90.0592 230.805 88.5567 232.025L88.9561 232.644C90.0913 234.547 90.9927 236.58 91.641 238.698C92.104 240.185 92.4016 241.719 92.5285 243.271C92.5728 243.867 92.5728 244.465 92.5285 245.06L91.5522 243.602C90.9531 242.674 90.0655 241.393 89.0227 239.913C87.9798 238.432 86.8037 236.797 85.3393 235.096C84.6514 234.235 83.8748 233.417 83.1204 232.556C82.3659 231.694 81.5671 230.854 80.7239 230.059C79.8807 229.264 79.0375 228.402 78.1722 227.607C77.3068 226.811 76.4858 225.972 75.6426 225.221C74.7994 224.469 74.0228 223.674 73.2684 223.011C72.514 222.348 71.8039 221.619 71.1604 220.956C69.1468 219.408 66.9002 218.185 64.5037 217.333C65.2638 216.492 66.0792 215.702 66.9445 214.969V215.035ZM248.052 287.612C249.714 290.978 250.937 294.542 251.691 298.217C252.345 301.395 252.782 304.613 253 307.85C253.2 310.678 253.222 313.042 253.266 314.699V317.284C253.266 317.284 253.266 316.356 252.933 314.721C252.601 313.086 252.445 310.744 252.068 307.96C251.647 304.795 251.062 301.654 250.315 298.549C249.51 295.003 248.258 291.573 246.587 288.341C244.822 285.135 242.889 282.023 240.796 279.018C239.081 276.245 237.703 273.278 236.691 270.181C235.981 268.022 235.469 265.803 235.16 263.553C234.96 261.918 234.916 260.968 234.916 260.968C234.916 260.968 235.071 261.896 235.471 263.486C236.014 265.683 236.711 267.838 237.556 269.938C238.747 272.885 240.234 275.705 241.994 278.355C244.178 281.331 246.2 284.421 248.052 287.612ZM270.507 407.756C271.195 412.175 271.439 415.732 271.617 418.273C271.794 420.814 271.75 422.272 271.75 422.272C271.75 422.272 271.617 420.836 271.284 418.295C270.951 415.754 270.418 412.175 269.597 407.911C268.633 403.05 267.418 398.242 265.958 393.506C264.427 388.292 262.297 382.879 260.256 377.422C258.223 372.051 256.577 366.544 255.33 360.94C254.34 356.021 253.797 351.022 253.71 346.005C253.649 342.47 253.827 338.934 254.243 335.423C254.553 332.904 254.819 331.468 254.819 331.468C254.819 331.468 254.664 332.904 254.553 335.467C254.356 338.969 254.356 342.48 254.553 345.983C254.854 350.915 255.558 355.814 256.661 360.631C257.949 366.152 259.64 371.572 261.72 376.848C263.695 382.327 265.759 387.894 267.268 393.108C268.652 397.897 269.734 402.767 270.507 407.69V407.756ZM290.588 478.455L336.076 531.767L330.551 536.053L285.529 483.272C287.326 481.659 289.124 480.046 290.588 478.455ZM283.044 485.415L327.955 538.063L322.052 542.615L278.162 489.237C279.738 488.11 281.38 486.807 283.044 485.415ZM275.433 491.071L319.478 544.625L313.865 549.044L270.174 494.208C271.838 493.258 273.591 492.264 275.433 491.071ZM143.719 147.209C143.719 147.209 143.719 146.767 143.719 145.927C143.719 145.088 143.719 143.873 143.719 142.304C143.719 141.531 143.83 140.669 143.874 139.741C143.918 138.813 144.118 137.797 144.251 136.714L144.873 133.29C145.205 132.119 145.494 130.86 145.915 129.578C146.16 128.937 146.381 128.297 146.626 127.634L147.003 126.64L147.469 125.668C147.802 125.005 148.112 124.342 148.445 123.657C148.778 122.972 149.244 122.376 149.643 121.691C151.405 118.923 153.618 116.467 156.189 114.422L158.408 112.986C159.1 112.464 159.844 112.013 160.627 111.638C162.195 110.805 163.836 110.117 165.531 109.584C167.231 108.97 168.984 108.511 170.767 108.214C172.541 107.828 174.345 107.591 176.159 107.507C179.748 107.19 183.363 107.316 186.921 107.882C190.398 108.418 193.769 109.499 196.906 111.086C199.82 112.603 202.484 114.555 204.805 116.874C206.858 118.948 208.66 121.254 210.175 123.745C211.472 125.856 212.586 128.074 213.503 130.373L214.568 133.224C214.857 134.107 215.101 134.947 215.345 135.676C215.767 137.178 216.055 138.371 216.233 139.189L216.499 140.448L216.144 139.211C215.922 138.415 215.523 137.245 215.034 135.786C214.768 135.057 214.48 134.24 214.147 133.378L212.949 130.594C211.912 128.424 210.726 126.327 209.398 124.32C207.857 121.91 206.04 119.686 203.984 117.692C201.673 115.564 199.083 113.758 196.285 112.323C191.661 110.146 186.621 108.986 181.507 108.921C181.085 108.921 180.597 108.921 180.242 108.921H178.911L176.248 109.075C174.494 109.148 172.749 109.369 171.033 109.738C169.758 109.902 168.502 110.191 167.284 110.6C173.032 110.129 178.794 111.343 183.859 114.091C189.952 117.821 194.735 123.34 197.549 129.887C199.775 134.919 201.464 140.169 202.586 145.552C196.262 146.921 188.119 148.335 179.887 149.683C175.449 150.434 171.011 151.185 166.862 151.495C163.088 151.828 159.288 151.702 155.546 151.119C152.879 150.681 150.283 149.894 147.824 148.777C146.885 148.346 145.974 147.859 145.094 147.319C145.905 147.964 146.757 148.555 147.646 149.087C150.026 150.508 152.586 151.608 155.257 152.356C159.054 153.405 162.967 153.976 166.906 154.058C171.233 154.234 175.782 154.058 180.22 153.748C189.251 153.284 198.348 152.732 205.182 152.003L209.62 151.495C211.819 153.303 213.598 155.565 214.835 158.123C216.676 157.769 218.429 157.504 219.916 157.129C221.403 156.753 222.867 156.466 223.777 156.201L225.264 155.825L223.888 156.51C223 156.886 221.669 157.482 220.16 158.012C218.37 158.639 216.548 159.17 214.702 159.603C212.682 160.045 210.486 160.443 208.311 160.774C206.137 161.105 203.873 161.216 201.832 161.371C200.501 161.371 199.236 161.481 198.06 161.503C193.622 161.901 188.807 162.166 184.103 162.166H183.215C164.754 162.033 162.003 161.901 161.892 161.901L159.096 161.68L159.384 164.508C159.784 168.639 159.739 175.422 158.452 177.896L157.077 177.167C152.781 173.95 148.878 170.243 145.449 166.121C144.473 163.911 142.476 159.36 141.012 154.853C138.815 148.844 143.719 147.209 143.719 147.209ZM135.886 171.511H137.528C139.226 171.478 140.889 171.022 142.365 170.186C145.53 173.895 149.07 177.271 152.927 180.26C150.478 185.42 148.889 190.942 148.223 196.61C147.602 206.419 156.233 211.456 165.087 212.075H166.152C168.596 212.007 170.983 211.32 173.087 210.079C175.191 208.838 176.943 207.085 178.178 204.983C180.556 205.943 183.059 206.56 185.612 206.817C182.905 207.811 180.375 209.026 177.979 209.998C173.732 212.266 169.096 213.719 164.31 214.284C160.827 214.483 157.986 214.682 155.568 214.881C150.669 215.567 145.689 215.432 140.834 214.483C135.775 213.356 130.849 210.064 124.481 204.983L125.191 199.349L121.707 202.729L117.913 199.526C111.256 193.87 103.379 186.69 99.1409 182.779L104.377 179.598C104.888 179.774 105.598 180.062 106.441 180.437C110.9 182.491 114.842 185.51 117.979 189.275C118.728 190.146 119.425 191.061 120.065 192.014C119.64 190.937 119.159 189.882 118.623 188.855C117.447 186.554 116.018 184.39 114.363 182.403C112.67 180.395 110.766 178.572 108.682 176.968L109.348 176.571C116.226 172.307 129.873 171.489 135.886 171.489V171.511ZM118.556 67.4956C150.664 31.0415 163.911 6.12011 168.815 5.30265H169.014C165.131 11.3342 156.855 23.9053 147.824 35.9904C135.487 52.7814 121.752 68.5561 121.752 68.5561C121.752 68.5561 136.374 53.621 149.754 37.4928C161.758 23.2425 172.72 8.15271 174.983 4.99335C179.055 5.16577 183.071 5.99396 186.877 7.44572L182.993 17.2773L190.405 9.03645C191.587 9.66899 192.709 10.4086 193.755 11.2458C177.668 34.7532 159.517 60.8676 141.411 82.1215C128.985 96.7252 117.003 109.473 107.462 119.172L114.895 109.473L139.015 77.7249L111.766 106.645C104.954 113.848 98.1202 121.205 93.0389 126.529C90.6717 128.968 88.1519 131.256 85.4946 133.378C83.8477 131.502 82.0839 129.731 80.2136 128.076L109.858 90.8925L76.5746 125.204C74.6865 123.87 72.6547 122.751 70.5169 121.868C77.4399 114.024 94.4146 94.8915 118.556 67.4735V67.4956ZM61.5526 125.358C63.3047 125.365 65.0543 125.49 66.7892 125.734C76.3305 128.473 84.2742 139.211 87.5803 144.314C91.885 151.429 94.5477 161.017 94.2371 164.397C89.5996 168.485 79.437 176.571 73.8675 177.256C72.0626 177.453 70.2457 177.52 68.4312 177.455C68.3282 176.237 68.1504 175.027 67.8986 173.831H68.7862L73.6456 173.257C74.7834 173.13 75.8729 172.728 76.8187 172.086C77.6021 171.497 78.3435 170.855 79.0376 170.164L90.1321 160.045L77.5287 168.242C76.8191 168.732 76.0779 169.174 75.3098 169.567C74.689 169.841 74.0134 169.97 73.335 169.943L68.6087 169.7L66.5451 169.589C66.2601 168.8 65.9342 168.025 65.5688 167.269C65.3247 166.761 65.0806 166.275 64.8144 165.811H65.48L70.3394 165.259C71.4696 165.115 72.5494 164.706 73.4903 164.066C74.2782 163.491 75.0201 162.856 75.7092 162.166L86.8037 152.047L74.2003 160.222C73.5011 160.727 72.7586 161.171 71.9814 161.547C71.3677 161.843 70.6866 161.972 70.0066 161.923L65.2803 161.702L61.5304 161.503C60.1852 160.054 58.6204 158.824 56.8928 157.858C53.9341 156.224 50.5316 155.567 47.174 155.98C43.9801 152.97 40.008 150.905 35.7023 150.015C35.8389 149.653 35.9944 149.299 36.1682 148.954L57.2257 143.585L38.8309 144.314C39.6963 143.077 40.6282 141.84 41.6046 140.603L62.7508 136.67L45.5099 136.007L47.7288 133.533L68.2093 130.594L51.6119 129.247C51.9447 128.893 52.2109 128.54 52.455 128.253C54.2302 125.866 58.202 125.336 61.5526 125.336V125.358ZM18.772 164.906C19.527 165.043 20.2691 165.242 20.9909 165.502C22.6227 165.967 24.1775 166.667 25.6063 167.579C27.309 168.516 28.8889 169.659 30.3103 170.981C31.9745 172.241 33.5943 173.522 35.081 174.781C36.5676 176.041 38.0321 176.991 39.2081 178.117L39.8073 178.581L40.362 180.216C40.362 180.216 41.9374 185.143 39.3413 186.601C37.3886 187.684 36.2792 187.397 36.0129 187.131L33.2837 183.773L32.8843 183.265C31.9967 182.183 30.9538 181.056 29.7778 179.796C28.6018 178.537 26.7823 177.167 25.229 175.842C23.5577 174.546 21.7408 173.449 19.8149 172.572C18.0019 171.87 16.0388 171.642 14.1123 171.909C13.4436 172.049 12.795 172.272 12.1819 172.572C14.24 169.894 16.4398 167.328 18.772 164.883V164.906ZM10.9836 173.964C11.9881 173.588 13.0692 173.459 14.1345 173.588C15.7123 173.666 17.2423 174.153 18.5723 175.002C20.2208 175.908 21.7552 177.005 23.1433 178.272C24.7853 179.465 26.4051 180.68 27.8917 181.829C29.3784 182.978 30.8207 184.038 31.9745 184.922L32.618 185.408L32.3295 188.192C32.2611 188.906 31.9384 189.572 31.4198 190.07C31.1644 190.181 30.8886 190.239 30.6099 190.239C30.3311 190.239 30.0554 190.181 29.8 190.07C28.2674 189.731 26.7785 189.22 25.3622 188.545C24.7034 187.942 24.0067 187.381 23.2764 186.866C22.2741 185.991 21.2059 185.193 20.0812 184.48C19.1891 183.864 18.1876 183.422 17.13 183.177C16.5956 183.068 16.0437 183.08 15.5141 183.21C14.9846 183.339 14.4906 183.585 14.0679 183.928C13.2324 184.899 12.7826 186.14 12.8031 187.419C12.5435 190.701 12.6851 194.002 13.2247 197.25L11.494 199.217C8.87569 195.019 7.89934 188.59 7.89934 182.094C8.09881 179.134 9.17176 176.298 10.9836 173.942V173.964ZM28.5352 224.646C28.4362 222.973 28.251 221.307 27.9805 219.653C31.156 220.722 34.4804 221.289 37.8324 221.332C39.9162 221.337 41.9911 221.062 44.001 220.515C47.514 219.639 50.7831 217.985 53.5645 215.676C53.8307 217.289 54.0305 218.858 54.208 220.095C54.208 220.095 54.208 221.288 54.3411 223.1C54.3477 225.32 54.1695 227.537 53.8086 229.728C53.2519 233.011 52.3214 236.22 51.0349 239.294C51.0349 239.294 51.8116 238.3 52.8544 236.687C54.1243 234.695 55.2299 232.604 56.1606 230.435C57.0761 228.212 57.818 225.922 58.3795 223.586V223.298C60.0985 222.569 61.5211 221.285 62.4179 219.653L61.9076 221.531C67.122 222.923 71.4489 227.341 75.6204 231.694L66.3676 240.001L75.8201 237.792C68.7958 242.394 61.1739 246.022 53.1651 248.573C48.8496 250.223 44.1772 250.725 39.6076 250.031H39.2747C38.0488 248.246 36.9229 246.395 35.902 244.486C34.3686 241.589 33.0701 238.575 32.0189 235.472C32.2828 238.801 32.8171 242.104 33.6165 245.348L33.8828 246.474C33.2171 245.281 32.5514 244.044 31.8192 242.807C27.8473 235.693 28.7349 229.705 28.5352 224.624V224.646ZM115.76 258.891C114.014 255.312 112.681 251.546 111.789 247.667C115.645 250.683 119.99 253.021 124.636 254.583C128.58 255.496 132.597 256.058 136.64 256.262C136.33 256.836 135.975 257.411 135.664 258.051C134.998 259.355 134.244 260.747 133.445 262.094C132.646 263.442 131.981 264.878 131.226 266.138C130.472 267.397 129.873 268.678 129.274 269.695C128.675 270.711 128.253 271.661 127.898 272.279L127.41 273.274C127.41 273.274 127.743 273.031 128.275 272.567C129.017 271.916 129.721 271.222 130.383 270.49C131.324 269.474 132.206 268.404 133.024 267.286C133.867 266.027 134.732 264.657 135.575 263.265C136.419 261.873 136.973 260.349 137.572 258.847C137.917 258.01 138.214 257.154 138.46 256.284L143.186 256.615C148.936 256.828 154.666 257.419 160.338 258.383C162.763 261.231 166.179 263.062 169.902 263.508C172.779 263.533 175.648 263.206 178.445 262.536C183.326 261.63 188.851 260.614 193.511 261.63C195.064 261.984 196.462 262.36 197.949 262.735C201.304 263.828 204.804 264.416 208.333 264.481C209.527 264.475 210.719 264.409 211.906 264.282C212.065 266.886 212.824 269.418 214.125 271.683C217.453 277.317 220.271 292.959 222.024 299.278C224.509 308.115 222.601 318.919 222.889 328.662C225.352 328.264 227.749 327.822 229.945 327.403C235.604 326.21 240.263 324.994 243.525 324.044L248.651 322.542L247.43 323.183C246.609 323.603 245.433 324.243 243.88 324.95C239.572 326.988 235.123 328.716 230.567 330.12C227.771 330.982 224.709 331.888 221.403 332.617C218.097 333.346 214.591 334.053 210.929 334.561C207.268 335.069 203.474 335.467 199.591 335.643C196.085 335.776 192.49 335.798 188.918 335.643C181.703 335.704 174.49 335.401 167.306 334.738C146.315 332.771 127.987 322.299 121.485 318.168C124.791 312.313 124.348 307.739 124.348 301.73C124.348 293.578 127.698 289.689 124.68 278.289C121.663 266.889 121.352 270.799 115.76 258.891ZM33.6609 433.827C33.1758 431.428 33.0265 428.975 33.2171 426.536C43.0279 431.604 53.3818 435.554 64.0821 438.312C67.0776 439.085 69.94 439.77 72.6471 440.344C71.8913 442.799 70.9645 445.198 69.8735 447.525C66.5895 446.729 63.1058 445.801 59.4668 444.719C50.5117 442.117 41.8893 438.492 33.7718 433.915L33.6609 433.827ZM66.3676 359.571C68.4197 359.884 70.4396 360.379 72.403 361.051L54.4521 407.69C52.5216 406.939 50.7909 406.144 49.2376 405.37L66.3676 359.571ZM64.3706 410.783C61.9076 410.209 59.6443 409.524 57.5363 408.817L75.4651 362.222C77.5834 363.092 79.6438 364.095 81.6337 365.227L64.3706 410.783ZM63.0614 415.489H63.3943C66.0348 416.063 68.875 416.55 71.7373 416.881C74.5997 417.212 77.4399 417.61 80.1248 417.765C82.8097 417.919 85.3614 418.096 87.536 418.052C89.7105 418.008 91.53 418.052 92.7948 418.052H94.814L92.8614 418.538C91.1282 418.95 89.3722 419.26 87.6025 419.466C85.0993 419.771 82.5801 419.926 80.0582 419.93C78.3941 419.93 76.6411 419.797 74.866 419.665C75.0471 421.773 75.1064 423.89 75.0435 426.006C72.8246 425.586 70.2729 425.122 67.6989 424.569C56.6535 422.37 46.0559 418.345 36.3458 412.661C37.2333 410.142 38.2318 407.646 39.2747 405.216C46.5285 410.111 54.6314 413.625 63.1724 415.577L63.0614 415.489ZM67.0111 427.795C69.7625 428.37 72.3586 428.878 74.8216 429.32C74.5852 431.978 74.1476 434.614 73.5125 437.207C70.8054 436.61 67.9208 435.948 64.9031 435.152C54.0277 432.348 43.5198 428.284 33.5943 423.045C33.9977 420.63 34.5686 418.245 35.3029 415.909C45.2188 421.608 56.0048 425.653 67.233 427.883L67.0111 427.795ZM49.2598 446.442L40.3842 531.48C38.6312 531.016 37.0336 530.552 35.6135 530.11L44.2672 444.498C45.9758 445.227 47.64 445.867 49.4817 446.53L49.2598 446.442ZM52.4328 447.569C53.9639 448.121 55.6059 448.651 57.2923 449.159L50.0364 533.6C47.8175 533.181 45.5986 532.717 43.6016 532.275L52.4328 447.569ZM60.5097 450.109C62.4845 450.684 64.3928 451.214 66.2566 451.678C65.835 456.693 65.7463 461.731 65.7019 466.79L60.5762 521.317C58.6516 533.806 55.5689 546.091 51.3678 558.014L60.5097 450.109ZM90.7312 374.152C91.7071 375.579 92.6106 377.054 93.4383 378.571C94.1522 380.18 94.7817 381.824 95.3243 383.498C95.7496 384.944 96.0612 386.422 96.2563 387.916C96.3961 388.993 96.4628 390.078 96.456 391.164V392.379L96.0788 391.451C95.8791 390.722 95.4353 389.684 95.0137 388.469C94.5921 387.254 93.9708 385.862 93.4161 384.359C92.8117 382.806 92.1228 381.287 91.3525 379.808C90.6424 378.24 89.8436 376.737 89.1336 375.389L88.6676 374.616L74.1338 412.727C71.9149 412.396 69.8291 412.02 67.7433 411.601L84.5405 367.303C85.6634 368.26 86.7026 369.309 87.6469 370.441L87.9576 370.75C89.016 371.843 89.9948 373.009 90.8865 374.241L90.7312 374.152ZM43.0469 397.196C48.7938 384.779 48.1726 365.624 57.4698 360.742C59.2137 359.878 61.136 359.432 63.0836 359.438L46.4196 403.934C44.7003 402.97 43.0337 401.915 41.427 400.775C41.9818 399.56 42.5143 398.345 43.0469 397.196ZM34.8147 440.057C36.4789 440.941 38.6756 442.001 41.2939 443.172L32.5958 529.115C30.4094 528.371 28.2683 527.5 26.1832 526.508C26.7823 522.996 27.3814 519.417 27.9139 515.815C30.621 497.765 33.9493 451.104 34.8147 440.057ZM25.6063 529.845C33.4146 533.205 41.6142 535.58 50.0142 536.914L47.2628 568.022C47.1504 567.78 47.0245 567.544 46.8856 567.315C45.5676 564.693 44.0155 562.193 42.2481 559.847C43.0633 560.388 43.8086 561.026 44.467 561.747C44.9995 562.256 45.2658 562.565 45.2658 562.565C45.2658 562.565 45.2658 562.167 45.0217 561.438C44.6914 560.447 44.2445 559.497 43.6903 558.61C42.7843 557.403 41.7167 556.325 40.5173 555.407C39.0679 554.456 37.492 553.713 35.8354 553.197C34.1541 552.822 32.432 552.659 30.7097 552.711C29.2555 552.848 27.8155 553.106 26.4051 553.485C25.4366 553.829 24.4884 554.227 23.5649 554.678L22.5663 555.252H23.7202C24.4524 555.252 25.4731 555.252 26.6713 555.252H27.2926C26.253 555.416 25.234 555.69 24.2527 556.069C23.3049 556.44 22.3243 556.721 21.3237 556.909C21.7231 551.01 23.6536 541.068 25.6063 529.889V529.845ZM5.8136 571.027C6.98962 567.602 11.8712 565.061 15.8874 563.471C16.42 563.625 16.9969 563.891 17.6182 564.023L19.8371 564.62L22.056 565.061C22.7217 565.26 23.4317 565.26 24.0086 565.393C24.5856 565.525 25.1181 565.503 25.4731 565.548H26.05L25.6728 565.106C25.3283 564.739 24.9494 564.406 24.5412 564.111C23.9691 563.696 23.3601 563.334 22.7217 563.029C22.0116 562.742 21.235 562.477 20.5028 562.211H19.8593H19.9924C21.2716 562.06 22.5392 561.824 23.7867 561.504L24.5412 561.637L27.1817 562.101C28.0692 562.101 28.979 562.3 29.8222 562.454C30.6654 562.609 31.4863 562.587 32.1742 562.698C32.8621 562.808 33.4834 562.697 33.9049 562.808H34.5706L34.0603 562.366C33.5943 561.999 33.0968 561.674 32.5736 561.394C31.8619 560.998 31.12 560.658 30.3547 560.378L29.2009 560.068C30.8288 560.005 32.4591 560.042 34.0825 560.179C37.7215 560.422 40.0514 564.598 42.7362 569.679C43.6016 571.27 44.5114 572.949 45.5099 574.562C41.1746 575.415 36.7973 576.042 32.3961 576.44C26.6217 576.98 20.8178 577.143 15.0221 576.926C10.2514 576.727 7.05618 576.395 7.05618 576.395C7.05618 576.395 10.0739 577.478 14.7336 578.804C15.8652 579.135 17.13 579.466 18.4614 579.798C17.1966 579.798 15.9318 579.798 14.667 579.798C12.6285 579.882 10.5884 579.673 8.60941 579.179C7.39941 578.822 6.27986 578.212 5.32543 577.39C4.88754 575.28 5.05675 573.089 5.8136 571.071V571.027ZM129.695 422.868C126.389 424.923 123.194 426.602 120.42 427.994C117.647 429.386 115.25 430.38 113.586 431.087L110.923 432.081L113.364 430.645C114.939 429.783 117.114 428.436 119.755 426.801C122.395 425.166 125.346 423.178 128.63 421.101C131.914 419.024 135.287 416.682 138.46 414.163C141.633 411.645 145.117 409.347 148.09 406.961C151.063 404.575 154.014 402.542 156.411 400.51L162.269 395.914L164.488 394.191L162.579 396.268C161.292 397.549 159.562 399.449 157.276 401.548C154.991 403.647 152.395 406.144 149.421 408.618C146.448 411.092 143.186 413.633 139.88 416.13C136.574 418.626 133.001 420.858 129.695 422.912V422.868ZM192.402 400.112C190.249 397.308 187.953 394.617 185.523 392.048C186.078 392.401 186.632 392.733 187.143 393.086C190.534 395.313 193.726 397.827 196.684 400.598C199.391 402.962 201.543 405.017 203.03 406.585L205.382 408.927L203.496 406.166C202.231 404.464 200.39 402.056 197.993 399.317C195.17 396.215 192.09 393.354 188.785 390.767C184.968 388.093 180.908 385.575 176.625 383.166C173.761 381.647 170.796 380.325 167.75 379.212C164.383 377.832 160.929 376.673 157.409 375.743C145.894 372.377 133.895 370.95 121.907 371.523C119.399 371.634 117.292 371.832 115.849 372.009L113.63 372.252H115.849C117.314 372.252 119.4 372.451 121.885 372.716C127.888 373.355 133.827 374.501 139.636 376.141L140.723 376.472C135.023 378.387 129.499 380.789 124.215 383.652C116.936 387.408 111.079 391.253 104.777 393.153C106.308 392.291 108.016 391.297 109.725 390.28C114.651 387.342 119.444 384.183 119.444 384.183C119.444 384.183 114.096 386.259 108.682 388.049C106.175 388.911 103.667 389.684 101.67 390.258C99.0521 378.681 94.2371 367.9 85.7165 361.846C96.5004 345.033 108.15 333.876 116.315 325.016L117.58 323.558C124.37 327.977 143.719 339.156 166.618 341.233C173.689 341.896 180.501 342.227 187.054 342.227C199.322 342.405 211.568 341.13 223.533 338.427C223.533 339.863 223.733 341.277 223.932 342.669L222.934 342.978C219.295 344.304 215.434 345.74 211.573 347.242C207.712 348.745 204.006 350.534 200.478 352.147C196.95 353.76 193.822 355.505 191.026 356.942L184.524 360.653L182.106 362.178L184.791 361.228L191.802 358.599C194.665 357.428 198.015 356.124 201.61 354.732C205.205 353.34 208.977 351.727 212.816 350.313C216.654 348.9 220.382 347.132 223.91 345.696L224.332 345.519C224.487 346.337 224.665 347.176 224.864 347.994L224.243 348.237C221.58 349.518 218.962 350.844 216.521 352.125C214.08 353.407 211.972 354.887 210.131 356.102C208.289 357.317 206.847 358.488 205.826 359.261L204.273 360.565L206.159 359.792C207.313 359.261 208.999 358.532 211.018 357.693C213.037 356.853 215.301 355.726 217.808 354.644C220.315 353.561 222.912 352.324 225.574 351.219H225.685C228.104 359.88 231.876 368.032 233.806 377.356C236.647 389.848 240.499 402.091 245.323 413.965L234.894 398.124L243.17 418.604C229.857 419.378 218.585 426.226 212.882 430.402C206.667 419.922 199.828 409.822 192.402 400.156V400.112ZM212.15 449.005C211.197 447.476 210.648 445.733 210.555 443.936C210.462 442.14 210.827 440.349 211.617 438.731L236.025 470.546C233.821 470.581 231.624 470.299 229.502 469.706C223.133 462.902 215.456 455.213 212.15 449.049V449.005ZM234.472 475.406H235.848C244.325 475.185 252.55 472.489 259.501 467.652C260.959 466.716 262.366 465.706 263.717 464.625L265.714 462.835C267.7 460.987 269.568 459.017 271.306 456.936C273.108 454.913 274.782 452.78 276.321 450.551C277.741 448.342 279.183 446.398 280.182 444.564C280.714 443.658 281.18 442.819 281.602 442.067C282.001 441.444 282.357 440.795 282.667 440.123L283.621 438.422L283.111 440.3C282.955 440.896 282.733 441.626 282.445 442.509C282.153 443.443 281.805 444.358 281.402 445.249C280.452 447.507 279.324 449.686 278.029 451.766C278.029 451.965 277.763 452.164 277.63 452.363C278.716 453.297 279.738 454.3 280.692 455.368C277.047 460.7 272.549 465.401 267.379 469.287C258.904 475.941 248.558 479.802 237.778 480.333C237.601 480.046 237.445 479.737 237.246 479.449C236.397 478.052 235.471 476.702 234.472 475.406ZM239.797 483.493C250.619 482.568 260.94 478.539 269.509 471.894C274.638 467.979 279.129 463.299 282.822 458.019C284.204 459.896 285.415 461.892 286.439 463.984C282.058 468.983 277.131 473.481 271.75 477.395C263.449 483.72 253.638 487.786 243.281 489.193C241.929 487.423 240.762 485.52 239.797 483.515V483.493ZM246.809 492.021C256.594 490.124 265.815 486.028 273.769 480.046C278.93 476.303 283.689 472.038 287.97 467.32C288.59 469.019 289.079 470.762 289.434 472.534C286.796 475.386 284.011 478.099 281.091 480.665C267.068 492.86 256.306 493.921 254.464 493.921C251.809 493.835 249.201 493.195 246.809 492.043V492.021ZM295.115 539.477C284.864 528.011 266.846 507 259.235 498.118C261.956 497.494 264.609 496.606 267.157 495.467L325.314 568.486C325.114 569.237 324.959 569.944 324.848 570.585C316.017 566.895 306.409 552.203 295.115 539.477ZM329.464 573.744C329.465 571.438 330.039 569.169 331.135 567.137C332.23 565.106 333.814 563.376 335.743 562.101C341.956 558.08 352.296 559.715 359.286 561.549C359.463 562.41 359.596 563.206 359.685 563.758C360.358 567.45 360.075 571.252 358.864 574.805C356.165 575.478 353.432 576.009 350.676 576.395C345.461 577.16 340.193 577.5 334.922 577.412C340.103 578.863 345.394 579.89 350.743 580.483C352.052 580.637 353.339 580.748 354.604 580.836L354.404 580.991C350.454 581.344 345.795 581.455 339.715 581.455C331.86 581.455 329.929 576.749 329.464 573.833V573.744Z" fill="#3F3F3F"/>
<path d="M143.807 361.338C142.21 359.813 140.39 357.98 138.482 355.991C136.574 354.003 134.421 351.992 132.402 349.893C130.383 347.795 128.164 345.828 126.234 343.862C124.303 341.896 122.373 340.172 120.82 338.604C119.266 337.035 117.846 335.82 116.914 334.936C115.982 334.052 115.361 333.566 115.361 333.566C115.361 333.566 115.76 334.207 116.426 335.334C117.092 336.461 118.157 337.963 119.444 339.753C120.731 341.542 122.395 343.575 124.148 345.74C125.901 347.905 128.031 350.004 130.095 352.147C132.158 354.29 134.532 356.19 136.574 358.024C138.615 359.858 140.812 361.36 142.609 362.685C144.407 364.011 146.026 364.895 147.047 365.668L148.822 366.707L147.446 365.182C146.603 364.298 145.316 362.973 143.807 361.338Z" fill="#3F3F3F"/>
<path d="M197.328 346.977C198.681 346.69 199.857 346.403 200.811 346.138L203.785 345.21L200.678 345.497C199.702 345.651 198.459 345.74 197.15 345.828C195.841 345.917 194.265 346.049 192.579 346.093C188.782 346.334 184.975 346.37 181.174 346.204C176.83 346.094 172.497 345.74 168.193 345.143C163.879 344.652 159.597 343.914 155.368 342.934C151.617 342.155 147.913 341.166 144.273 339.973C142.676 339.532 141.211 339.046 139.836 338.582C138.46 338.118 137.395 337.764 136.507 337.389L133.8 336.218L136.441 337.853C137.306 338.361 138.371 338.913 139.592 339.532C140.812 340.15 142.21 340.879 143.763 341.586C147.344 343.103 151.003 344.431 154.724 345.563C159.042 346.714 163.42 347.629 167.838 348.303C172.261 348.76 176.705 348.974 181.152 348.943C185.037 348.776 188.911 348.399 192.757 347.817C194.465 347.64 195.93 347.264 197.328 346.977Z" fill="#3F3F3F"/>
<path d="M148.112 307.783C151.485 305.95 155.346 303.718 159.451 301.155C163.556 298.593 167.661 295.61 171.81 292.627C175.959 289.645 179.732 286.154 183.348 283.017C186.965 279.879 190.005 276.61 192.69 273.87C195.375 271.13 197.372 268.634 198.814 266.933L201.033 264.149L198.193 266.358C196.44 267.728 193.933 269.694 190.871 271.948C187.808 274.201 184.436 277.051 180.641 279.879C176.847 282.707 172.942 285.889 168.881 288.849C164.821 291.81 160.915 295.013 157.077 297.687C153.238 300.36 149.799 303.232 146.692 305.419C143.586 307.607 141.145 309.639 139.325 310.943L136.574 313.152L139.813 311.804C141.81 310.876 144.695 309.529 148.112 307.783Z" fill="#3F3F3F"/>
<path d="M161.603 288.518C163.09 287.457 164.865 286.309 166.573 284.806C168.282 283.304 170.079 281.691 171.832 280.034C173.585 278.377 175.072 276.455 176.536 274.732C178.001 273.008 179.155 271.219 180.198 269.739C181.24 268.258 181.906 266.866 182.416 265.961L183.171 264.48L181.906 265.585C181.174 266.314 179.998 267.286 178.733 268.568C177.468 269.849 175.915 271.219 174.406 272.854C172.897 274.489 171.189 276.124 169.48 277.758C167.772 279.393 166.218 281.183 164.643 282.729C163.068 284.276 161.692 285.867 160.405 287.148C159.118 288.43 158.186 289.601 157.454 290.352L156.366 291.611L157.853 290.838C158.763 290.263 160.139 289.556 161.603 288.518Z" fill="#3F3F3F"/>
<path d="M192.135 306.657C189.606 308.291 187.032 309.86 184.591 311.274C182.15 312.688 179.931 314.124 177.934 315.207C175.937 316.289 174.362 317.416 173.186 318.035L171.411 319.139L173.452 318.609C174.717 318.211 176.603 317.725 178.711 316.864C180.819 316.002 183.371 315.052 185.922 313.749C188.474 312.445 191.181 310.965 193.822 309.33C196.462 307.695 198.903 305.905 201.233 304.226C203.563 302.547 205.515 300.691 207.224 299.167C208.932 297.642 210.219 296.206 211.151 295.256L212.549 293.666L210.752 294.77C209.642 295.522 207.978 296.472 206.092 297.731C204.206 298.99 201.921 300.316 199.591 301.907C197.261 303.497 194.709 305.132 192.135 306.657Z" fill="#3F3F3F"/>
<path d="M202.276 307.938C201.477 308.314 200.478 308.645 199.524 309.175L196.484 310.722L193.555 312.489C192.601 313.042 191.802 313.704 191.048 314.168C190.294 314.632 189.761 315.185 189.339 315.494L188.718 316.046L189.539 315.914C190.287 315.784 191.028 315.614 191.758 315.406C192.601 315.096 193.622 314.831 194.62 314.367L197.771 312.865L200.7 310.987C201.534 310.407 202.335 309.78 203.097 309.109C203.785 308.535 204.273 307.938 204.65 307.585L205.205 306.944L204.384 307.165C203.829 307.364 203.075 307.496 202.276 307.938Z" fill="#3F3F3F"/>
<path d="M340.758 567.05C341.588 567.196 342.424 567.299 343.265 567.359L346.128 567.492L348.99 567.337C349.9 567.337 350.743 567.072 351.475 567.005C352.207 566.939 352.829 566.674 353.272 566.608L353.938 566.387L353.272 566.122C352.7 565.919 352.114 565.757 351.519 565.636C350.694 565.438 349.857 565.298 349.012 565.216L346.105 565.039L343.221 565.238C342.289 565.238 341.446 565.569 340.713 565.68C339.981 565.79 339.382 566.1 338.96 566.21L338.295 566.475L338.983 566.674C339.564 566.842 340.158 566.967 340.758 567.05Z" fill="#3F3F3F"/>
<path d="M340.758 563.073C341.588 563.219 342.424 563.323 343.265 563.382L346.128 563.515L348.99 563.36C349.9 563.36 350.743 563.095 351.475 563.029C352.207 562.962 352.829 562.697 353.272 562.631L353.938 562.41L353.272 562.145C352.698 561.944 352.113 561.774 351.519 561.637C350.692 561.458 349.855 561.325 349.012 561.239L346.105 561.062L343.221 561.261C342.289 561.261 341.446 561.593 340.713 561.703C340.117 561.836 339.531 562.013 338.96 562.233L338.295 562.498L338.983 562.697C339.567 562.854 340.16 562.98 340.758 563.073Z" fill="#3F3F3F"/>
<path d="M29.2896 535.633C30.1328 536.185 31.1756 536.804 32.3073 537.422C33.4389 538.041 34.7481 538.439 36.0351 538.903C37.322 539.367 38.6978 539.499 39.9626 539.698C41.2273 539.897 42.4255 539.853 43.4462 539.875C44.4669 539.897 45.3545 539.698 45.9536 539.61L46.8855 539.411L46.0202 538.991C45.4654 538.77 44.6666 538.461 43.8013 538.063C42.9359 537.665 41.7598 537.378 40.6282 536.936C39.4966 536.494 38.2318 536.207 37.0114 535.787C35.791 535.368 34.504 535.147 33.3502 534.771C32.1964 534.396 31.0203 534.241 30.0662 533.976L27.6698 533.512L26.7157 533.379L27.3813 534.064C27.8029 534.462 28.4686 535.058 29.2896 535.633Z" fill="#3F3F3F"/>
<path d="M334.855 539.654L331.483 541.421L327.844 543.741L324.427 546.414L321.653 548.977L319.811 551.01L319.168 551.849L320.188 551.518L322.718 550.48L326.069 548.712L329.73 546.392L333.125 543.719L335.921 541.156L337.74 539.124L338.384 538.284L337.385 538.615L334.855 539.654Z" fill="#3F3F3F"/>
<path d="M64.6812 145.662C64.0599 146.303 63.6383 146.899 63.3055 147.297L62.8173 147.938L63.5052 147.518C63.9268 147.231 64.5924 146.877 65.2803 146.347C65.9681 145.817 66.8335 145.264 67.6767 144.557L70.295 142.348L72.7802 139.984C73.5568 139.255 74.2225 138.459 74.8216 137.775C75.4207 137.09 75.8645 136.537 76.1973 136.162L76.6855 135.521L75.9976 135.919C75.5538 136.206 74.9103 136.581 74.2225 137.09C73.5346 137.598 72.6471 138.194 71.8261 138.901L69.2078 141.111L66.7226 143.453C65.946 144.248 65.2803 145.043 64.6812 145.662Z" fill="#3F3F3F"/>
<path d="M72.7136 149.197C71.9148 149.793 71.227 150.456 70.6057 150.986C69.9844 151.517 69.5406 152.025 69.1856 152.356L68.6752 152.909L69.3631 152.621C69.7847 152.4 70.4281 152.135 71.1382 151.738C71.8482 151.34 72.6914 150.898 73.5346 150.346L76.1751 148.6C77.0405 147.96 77.8837 147.297 78.6825 146.678C79.4813 146.06 80.1692 145.419 80.9014 144.889C81.6336 144.358 81.9887 143.85 82.3215 143.519L82.8318 142.966L82.144 143.254C81.7224 143.475 81.0789 143.74 80.3689 144.137C79.6588 144.535 78.8156 144.977 77.9724 145.529L75.3319 147.275L72.7136 149.197Z" fill="#3F3F3F"/>
<path d="M189.095 191.948H191.647L194.199 191.705C194.998 191.705 195.752 191.417 196.418 191.307C197.083 191.196 197.594 190.976 197.971 190.887L198.57 190.666L197.949 190.512C197.572 190.512 197.017 190.269 196.373 190.202C195.73 190.136 194.953 190.003 194.154 190.003H191.492L188.962 190.246C188.208 190.332 187.464 190.495 186.743 190.732C186.186 190.902 185.671 191.188 185.234 191.572C185.081 191.717 184.947 191.88 184.835 192.058C185.021 191.986 185.215 191.934 185.412 191.903C185.914 191.862 186.419 191.862 186.921 191.903C187.564 191.793 188.274 191.926 189.095 191.948Z" fill="#3F3F3F"/>
<path d="M189.14 195.77H190.937L192.734 195.571C193.289 195.571 193.822 195.284 194.288 195.195C194.657 195.082 195.02 194.949 195.375 194.798L195.774 194.599L195.353 194.444C194.984 194.317 194.606 194.221 194.221 194.157C193.7 194.062 193.174 193.996 192.646 193.958H190.826L189.051 194.179C188.525 194.268 188.006 194.393 187.498 194.555C187.127 194.664 186.764 194.797 186.411 194.952L185.989 195.151L186.433 195.306C186.803 195.426 187.181 195.522 187.564 195.593C188.086 195.681 188.612 195.74 189.14 195.77Z" fill="#3F3F3F"/>
</g>
<defs>
<clipPath id="clip0_21_19">
<rect width="372" height="587" fill="white"/>
</clipPath>
</defs>
</svg>
