<svg width="1440" height="1002" viewBox="0 0 1440 1002" fill="none" xmlns="http://www.w3.org/2000/svg">
<g style="mix-blend-mode:darken" opacity="0.1">
<path d="M82.5514 897.937H1356.45V104.063H82.5514V897.937Z" fill="white"/>
<mask id="mask0_6_147" style="mask-type:luminance" maskUnits="userSpaceOnUse" x="82" y="104" width="1275" height="794">
<path d="M82.5514 897.937H1356.45V104.063H82.5514V897.937Z" fill="white"/>
</mask>
<g mask="url(#mask0_6_147)">
<path d="M-13.9955 3.05176e-05H1453V1002.01H-13.9955V3.05176e-05ZM1451.11 2.06448H-12.1025V999.921H1451.11V2.06448Z" fill="#B3B3B3"/>
<path d="M-13.0511 152.055H1452.05V149.985H-13.0511V152.055Z" fill="#B3B3B3"/>
<path d="M-13.0511 202.051H1452.05V199.982H-13.0511V202.051Z" fill="#B3B3B3"/>
<path d="M-13.0511 252.048H1452.05V249.979H-13.0511V252.048Z" fill="#B3B3B3"/>
<path d="M-13.0511 302.045H1452.05V299.976H-13.0511V302.045Z" fill="#B3B3B3"/>
<path d="M-13.0511 352.042H1452.05V349.972H-13.0511V352.042Z" fill="#B3B3B3"/>
<path d="M-13.0511 402.039H1452.05V399.969H-13.0511V402.039Z" fill="#B3B3B3"/>
<path d="M-13.0511 452.035H1452.05V449.966H-13.0511V452.035Z" fill="#B3B3B3"/>
<path d="M-13.0511 502.032H1452.05V499.963H-13.0511V502.032Z" fill="#B3B3B3"/>
<path d="M-13.0511 552.029H1452.05V549.96H-13.0511V552.029Z" fill="#B3B3B3"/>
<path d="M-13.0511 602.026H1452.05V599.956H-13.0511V602.026Z" fill="#B3B3B3"/>
<path d="M-13.0511 652.023H1452.05V649.953H-13.0511V652.023Z" fill="#B3B3B3"/>
<path d="M-13.0511 702.019H1452.05V699.95H-13.0511V702.019Z" fill="#B3B3B3"/>
<path d="M-13.0511 752.016H1452.05V749.947H-13.0511V752.016Z" fill="#B3B3B3"/>
<path d="M-13.0511 802.013H1452.05V799.944H-13.0511V802.013Z" fill="#B3B3B3"/>
<path d="M-13.0511 852.01H1452.05V849.94H-13.0511V852.01Z" fill="#B3B3B3"/>
<path d="M119.19 1000.97H121.088V1.02979H119.19V1000.97Z" fill="#B3B3B3"/>
<path d="M163.587 1000.97H165.484V1.02979H163.587V1000.97Z" fill="#B3B3B3"/>
<path d="M207.988 1000.97H209.885V1.02979H207.988V1000.97Z" fill="#B3B3B3"/>
<path d="M252.384 1000.97H254.282V1.02979H252.384V1000.97Z" fill="#B3B3B3"/>
<path d="M296.781 1000.97H298.678V1.02979H296.781V1000.97Z" fill="#B3B3B3"/>
<path d="M341.178 1000.97H343.075V1.02979H341.178V1000.97Z" fill="#B3B3B3"/>
<path d="M385.574 1000.97H387.472V1.02979H385.574V1000.97Z" fill="#B3B3B3"/>
<path d="M429.971 1000.97H431.868V1.02979H429.971V1000.97Z" fill="#B3B3B3"/>
<path d="M474.368 1000.97H476.265V1.02979H474.368V1000.97Z" fill="#B3B3B3"/>
<path d="M518.764 1000.97H520.662V1.02979H518.764V1000.97Z" fill="#B3B3B3"/>
<path d="M563.161 1000.97H565.058V1.02979H563.161V1000.97Z" fill="#B3B3B3"/>
<path d="M607.557 1000.97H609.455V1.02979H607.557V1000.97Z" fill="#B3B3B3"/>
<path d="M651.954 1000.97H653.852V1.02979H651.954V1000.97Z" fill="#B3B3B3"/>
<path d="M696.351 1000.97H698.248V1.02979H696.351V1000.97Z" fill="#B3B3B3"/>
<path d="M740.752 1000.97H742.649V1.02979H740.752V1000.97Z" fill="#B3B3B3"/>
<path d="M785.148 1000.97H787.046V1.02979H785.148V1000.97Z" fill="#B3B3B3"/>
<path d="M829.545 1000.97H831.443V1.02979H829.545V1000.97Z" fill="#B3B3B3"/>
<path d="M873.942 1000.97H875.839V1.02979H873.942V1000.97Z" fill="#B3B3B3"/>
<path d="M918.338 1000.97H920.236V1.02979H918.338V1000.97Z" fill="#B3B3B3"/>
<path d="M962.735 1000.97H964.633V1.02979H962.735V1000.97Z" fill="#B3B3B3"/>
<path d="M1007.13 1000.97H1009.03V1.02979H1007.13V1000.97Z" fill="#B3B3B3"/>
<path d="M1051.53 1000.97H1053.43V1.02979H1051.53V1000.97Z" fill="#B3B3B3"/>
<path d="M1095.92 1000.97H1097.82V1.02979H1095.92V1000.97Z" fill="#B3B3B3"/>
<path d="M1140.32 1000.97H1142.22V1.02979H1140.32V1000.97Z" fill="#B3B3B3"/>
<path d="M1184.72 1000.97H1186.62V1.02979H1184.72V1000.97Z" fill="#B3B3B3"/>
<path d="M1229.11 1000.97H1231.01V1.02979H1229.11V1000.97Z" fill="#B3B3B3"/>
<path d="M1273.51 1000.97H1275.41V1.02979H1273.51V1000.97Z" fill="#B3B3B3"/>
<path d="M1317.91 1000.97H1319.81V1.02979H1317.91V1000.97Z" fill="#B3B3B3"/>
</g>
</g>
</svg>
