<svg id="Layer_1" data-name="Layer 1" xmlns="http://www.w3.org/2000/svg" viewBox="0 0 111.33 116.53"><defs><style>.cls-1{fill:#3f3f3f;}</style></defs><path class="cls-1" d="M81.77,15.32c-17.29,0-30.15,5.47-38.2,16.26C37.07,40.29,35.5,50.23,34.74,55c-.08.56-.18,1.17-.26,1.62-1,.45-3.2,1.1-4.72,1.56-5.88,1.77-9.25,2.9-10,5.59a3.64,3.64,0,0,0,.81,3.46c1.36,1.58,3.74,2,10.62,2,3.28,0,7.54-.11,12.46-.24,6-.16,13.17-.35,21.5-.42A29.7,29.7,0,0,1,65.36,78a15.42,15.42,0,0,1-.57,2.13c-2.24.07-4.89.08-8.24,0-4.25,0-11.9,0-18.3.26-13.32.47-13.46,1.22-13.65,2.26A1.26,1.26,0,0,0,25.1,84c.29,22.53,24.39,39,25.43,39.64h0l.11.07.06,0h0l.08,0,.06,0h0l.06,0,.21,0h0a1.07,1.07,0,0,0,.25,0h0l.05,0,.16-.07,0,0c.76-.43,12.79-7.35,23-14.31-.23,4.09-.17,7.65.4,9.85,0,0-5.12.57-4.12,5.82s1.77,7,5.47,6.68,5,1,6.53-.92,3.62-7,2.84-9.38a3,3,0,0,0-3-2.27s2.12-13.28,2.2-17.58a27.79,27.79,0,0,0,2.24-2.19c5.14-5.7,11.68-18.23,15.16-25.28,1,.47,2,.93,2.86,1.37,3.26,1.6,6.07,3,9.59,3H115c9.94,0,15.34-10.26,15.57-10.7a2.77,2.77,0,0,0,.31-1.38A67.47,67.47,0,0,0,124.3,41C118.5,29.31,106.41,15.32,81.77,15.32ZM74.49,130.16a4.26,4.26,0,0,1,0,.45s-.12-.12-.3-.34a9.09,9.09,0,0,1-.65-1,7.17,7.17,0,0,1-.35-.68c-.11-.25-.24-.5-.34-.78s-.21-.56-.29-.86-.15-.6-.23-.9-.11-.64-.15-1a7.53,7.53,0,0,1,0-.95,4.62,4.62,0,0,1,.38-1.7,2.9,2.9,0,0,1,.71-1,1.54,1.54,0,0,1,.36-.27l-.07.44a6.63,6.63,0,0,0,0,1.06,11.49,11.49,0,0,0,.16,1.41c0,.26.11.52.16.8s.11.56.18.84l.16.87c.07.29.09.58.14.86s.08.55.11.81,0,.51.06.74C74.49,129.48,74.49,129.88,74.49,130.16ZM92.75,87.63s-.43,0-1.18,0-1.82-.12-3.09-.25-2.76-.31-4.33-.55a4.13,4.13,0,0,1-.71-.15,1.55,1.55,0,0,1-.44-.2,1.59,1.59,0,0,1-.44-.38,2,2,0,0,1-.13-2,6.87,6.87,0,0,1,.84-1.18q.41-.5.78-1,.8-1,1.53-2c.48-.66,1-1.31,1.41-2s.87-1.27,1.24-1.88.74-1.19,1-1.74c.62-1.1,1.1-2,1.42-2.72l.5-1.07s0,.43-.18,1.18a19.12,19.12,0,0,1-.85,3,20.17,20.17,0,0,1-.81,1.94c-.32.68-.68,1.38-1.09,2.08s-.85,1.42-1.34,2.12-1,1.39-1.53,2.07c-.27.34-.54.67-.82,1a6.44,6.44,0,0,0-.65.85.72.72,0,0,0-.09.34s.19.15.59.22c1.56.35,3,.71,4.24,1.05s2.26.65,3,.88S92.75,87.63,92.75,87.63ZM79.91,84.17h-.49c0-.15,0-.29,0-.43l.51-.3Zm-5.57,3.35a14,14,0,0,1,3.19-.88c-.24,2.27-.52,4.48-.85,6.42-.23,1.34-.45,2.74-.66,4.17a36.28,36.28,0,0,1-5.73,3.85,47.26,47.26,0,0,0-11.81,9.09c2.86-6,6.14-13.18,8.62-19.2C70.05,89.48,72.62,88.23,74.34,87.52Zm-6,.27c.23-.59.45-1.17.66-1.73,1.38-.1,2.66-.22,3.81-.37C71.61,86.22,70.1,86.94,68.37,87.79Zm3,15.29a37.58,37.58,0,0,0,4.21-2.65c-.25,2-.47,4-.64,6-7.31,5.08-16.06,10.38-20.83,13.2A46.94,46.94,0,0,1,71.37,103.08Zm5.48-.16c.34-3,.83-6.15,1.3-9.31.38-2.41.73-4.81,1-7.14l.52,0c-.27,2.36-.61,4.81-1,7.24-.5,3.17-1,6.32-1.37,9.29-.08.65-.16,1.28-.23,1.91l-.5.36C76.67,104.49,76.75,103.71,76.85,102.92ZM85.4,90.71c.49-.66,1-1.31,1.39-1.94a15.85,15.85,0,0,0,4.82.56,60,60,0,0,1-6,8.5q-.23.26-.48.51C85.18,96.24,85.27,93.55,85.4,90.71ZM94.51,68.2c-1-.32-2-.64-3.15-.94.63-1.68,1-2.83,1-3a1.14,1.14,0,1,0-2.19-.62s-.37,1.26-1.06,3.06c-5.42-1.31-12.06-2.42-18.87-3.46-.21-.93-.37-1.5-.39-1.59a1.14,1.14,0,1,0-2.19.62s.06.23.16.6l-3.55-.53c-10.92-1.62-22.18-3.3-27-5.42.08-.46.17-1,.27-1.63,0-.22.08-.69.17-1.38.14-1,.32-2.48.7-4.34A48,48,0,0,1,40.25,43a38.55,38.55,0,0,1,3.9-8.05,33.81,33.81,0,0,1,7.06-8A36.42,36.42,0,0,1,61.53,21a50.86,50.86,0,0,1,12.35-2.94c1.07-.15,2.16-.19,3.24-.28s2.17-.11,3.26-.14l.82,0h.85l1.62.05c1.08.05,2.14,0,3.26.17s2.22.21,3.31.39l3.25.59,3.19.83c1,.32,2.07.71,3.11,1.06a39.55,39.55,0,0,1,11,6.4,40.86,40.86,0,0,1,8,8.83,49.6,49.6,0,0,1,4.93,9.37,58.43,58.43,0,0,1,2.7,8.48,62.67,62.67,0,0,1,1.23,6.74c.25,1.88.34,3.36.39,4.38s0,1.55,0,1.55a53.6,53.6,0,0,0-.87-5.86,68.33,68.33,0,0,0-4.69-14.78,52.71,52.71,0,0,0-5.12-8.91,41.62,41.62,0,0,0-7.83-8.25A39.35,39.35,0,0,0,99,22.75c-1-.32-2-.69-3-1L93,21l-3.1-.55c-1-.16-2.08-.22-3.12-.34-.52-.07-1.06-.11-1.6-.13,17.58,6,21.27,30.09,21.9,44.14,0-.45-.08-.9-.13-1.36-.1-1.23-.27-2.52-.44-3.85s-.43-2.69-.65-4.08-.54-2.78-.9-4.16-.67-2.77-1.12-4.1c-.2-.67-.41-1.34-.62-2s-.46-1.29-.69-1.91-.46-1.24-.69-1.84-.51-1.16-.76-1.72c-.51-1.1-.94-2.18-1.48-3.09l-1.39-2.54c-.46-.73-.89-1.35-1.23-1.87L95.93,30l.92,1.7c.29.54.66,1.19,1,1.95s.73,1.67,1.16,2.63.77,2,1.19,3.17c.19.57.42,1.14.59,1.75s.34,1.22.51,1.85.38,1.26.51,1.92.29,1.33.44,2c.32,1.33.49,2.71.73,4.08s.34,2.76.51,4.11.23,2.71.28,4,.11,2.55.1,3.74,0,2.32,0,3.35c0,.41,0,.79,0,1.17a1.12,1.12,0,0,0-1,.65c0,.05-.47,1-1.21,2.53A55.86,55.86,0,0,0,94.51,68.2Zm-14.2,2.15c0,1.4.1,3.4,0,5.81,0,1-.06,2.15-.12,3.32l-.4,0c.09-1.16.15-2.27.2-3.3.11-2.4.16-4.4.17-5.8,0-.63,0-1.14,0-1.51h0C80.26,69.21,80.28,69.72,80.31,70.35Zm-8.2-1.77c2.4,0,4.62.06,6.69.17,0,.88-.17,4.09-.44,8.15a1.15,1.15,0,0,0-.47.26,7.79,7.79,0,0,1-4.23,2.09c-.92.16-1.82.3-2.74.42a40.47,40.47,0,0,0,.21-11.09ZM78,81.66,78,82a11,11,0,0,1-2.57,1,41,41,0,0,1-5.56.78c.08-.23.15-.45.22-.67A22.79,22.79,0,0,1,78,81.66ZM25.82,62.44c-4.9,2.22,1,3.35,9.62,4-1.57,0-3,0-4.28,0-4.91,0-7.78-.25-8.48-1.05C21.77,64.33,23.39,63.36,25.82,62.44Zm38.09,2.42,2.36.35A123.36,123.36,0,0,1,33.68,60a20.41,20.41,0,0,0,2.24-.87C40.91,61.43,52.1,63.1,63.91,64.86Zm3.52,3.73h1.41a38.39,38.39,0,0,1-.26,11.25.19.19,0,0,1,0,.08L67.2,80a15.46,15.46,0,0,0,.4-1.65A31.28,31.28,0,0,0,67.43,68.59ZM56.52,82.45c2.95,0,5.36,0,7.45,0l-.54,1.35c-.21.11-.42.22-.62.34-6.78.19-14.67,0-21.4-.32,0-.48.08-.89.12-1.21C46.66,82.45,52.18,82.4,56.52,82.45Zm-17.3.21c0,.29-.06.63-.09,1-3-.18-5.62-.4-7.74-.63C33.57,82.89,36.29,82.76,39.22,82.66Zm3,15.52Q49.17,94,62,87.1c-.7,1.6-1.45,3.31-2.24,5-5,2.57-11.71,6-17.07,8.41C42.55,99.74,42.39,99,42.25,98.18Zm-1.7,3.32a25.25,25.25,0,0,1-5.8,1.94,31.37,31.37,0,0,1,5.37-3.94C40.25,100.16,40.4,100.82,40.55,101.5Zm17.74-6-.31.69c-4.37,9.58-7.57,16.8-8.72,21.31a61.19,61.19,0,0,1-6-14.68C47.07,101.11,52,98.68,58.29,95.47ZM60,97.1q.76-1.66,1.5-3.3L64,92.56c-4.4,10.32-10.6,23-12.91,27.75C51.17,116.57,56.08,105.81,60,97.1Zm3-6.61c.66-1.47,1.27-2.87,1.82-4.19l1.7-.08c-.37,1-.79,2-1.23,3.1ZM41.86,95.76a57.2,57.2,0,0,1-.57-9.68c4.7.24,9.91.38,14.93.38h2.22C51.13,90.38,45.76,93.4,41.86,95.76Zm-2.17,1.33A34.26,34.26,0,0,0,33.05,102,36.43,36.43,0,0,1,27.4,84.76,101.08,101.08,0,0,0,39,86,58.84,58.84,0,0,0,39.69,97.09Zm-4.28,8.49a28.21,28.21,0,0,0,5.7-1.86,63.39,63.39,0,0,0,5.74,14.14A72.35,72.35,0,0,1,35.41,105.58ZM82.87,128c.24-.56.48-1.17.7-1.79s.47-1.22.64-1.8a7,7,0,0,0,.33-1.6,4,4,0,0,0-.07-1.16,1.9,1.9,0,0,0-.09-.32l0-.11.07.1a1.87,1.87,0,0,1,.16.3,3.12,3.12,0,0,1,.29,1.19,6,6,0,0,1-.17,1.73c-.16.62-.37,1.25-.59,1.87s-.51,1.23-.78,1.8-.58,1.06-.83,1.49-.5.76-.67,1l-.28.36.19-.42c.11-.26.28-.64.48-1.09S82.62,128.6,82.87,128Zm-6.08-11.13c.12,1.39.22,2.19.22,2.19l-.09-.57c0-.37-.16-.91-.24-1.61a47.91,47.91,0,0,1-.35-5.8c0-.92,0-1.91.08-2.94l.41-.3c-.09,1.14-.15,2.23-.17,3.25A53.71,53.71,0,0,0,76.79,116.91Zm24-41.87c-.64,1.33-1.38,2.83-2.22,4.45s-1.74,3.36-2.75,5.19-2.08,3.75-3.26,5.7-2.46,3.93-3.9,5.85a17.07,17.07,0,0,1-1.11,1.43l-.58.7-.29.36-.32.33-1.28,1.29-1.38,1.21-.7.6-.72.57-1.43,1.12L78,106l-2.92,2L72.19,110l-2.81,1.84-2.71,1.71c-1.78,1.1-3.45,2.13-5,3.07s-3,1.79-4.27,2.54L54.07,121l-2.91,1.64,4.3-9.17c1.29-2.75,2.75-6,4.34-9.42.79-1.73,1.6-3.51,2.41-5.34s1.61-3.67,2.41-5.53l1.18-2.79,1.13-2.79c.31-.78.6-1.56.89-2.33h-.07l-3.56.19-3.57.08-3.54,0c-2.35,0-4.65,0-6.88-.09s-4.39-.15-6.43-.25-4-.23-5.76-.36-3.41-.27-4.85-.44-2.7-.33-3.73-.47c-.52-.07-1-.17-1.37-.24a6.84,6.84,0,0,1-1-.23l-.83-.23.83.2a8,8,0,0,0,1,.19c.4.06.86.14,1.37.2,1,.12,2.29.27,3.74.37s3.07.21,4.85.33,3.71.2,5.75.27c1,0,2.07.06,3.15.09l3.28.08c2.23,0,4.53,0,6.87,0l3.53,0,3.56-.1,3.55-.17.3,0c.33-.87.59-1.74.88-2.59.15-.45.24-.91.36-1.35a12.34,12.34,0,0,0,.3-1.34c.07-.45.16-.89.21-1.33s.11-.88.16-1.3A43.37,43.37,0,0,0,70.08,72a51.7,51.7,0,0,0-.75-7.28C69,62.93,68.77,62,68.77,62s.31,1,.67,2.7a48,48,0,0,1,1,7.29,45.5,45.5,0,0,1-.06,4.92c0,.44-.09.88-.13,1.33s-.13.89-.19,1.35c0,.23-.06.44-.12.68l-.17.69c-.12.45-.21.92-.36,1.38-.26.79-.51,1.6-.79,2.4.89-.06,1.78-.12,2.65-.22,1.15-.14,2.3-.25,3.42-.49l.85-.15c.26,0,.53-.14.8-.21a7.19,7.19,0,0,0,.78-.27,5.57,5.57,0,0,0,.76-.32,13.6,13.6,0,0,0,2.74-1.68,18.51,18.51,0,0,0,2.3-2.1,29.51,29.51,0,0,0,3.45-4.55A49.25,49.25,0,0,0,90.17,67c.77-1.93,1.12-3.07,1.12-3.07s-.3,1.15-1,3.11a45.88,45.88,0,0,1-3.67,7.81,29.66,29.66,0,0,1-3.42,4.67,19.22,19.22,0,0,1-2.31,2.18A13.37,13.37,0,0,1,78,83.48a5.37,5.37,0,0,1-.78.33,8,8,0,0,1-.82.29c-.28.07-.55.17-.85.23l-.84.15c-1.12.24-2.29.37-3.46.51-1,.12-1.94.19-2.91.27-.31.85-.62,1.71-1,2.57s-.74,1.86-1.11,2.8l-1.17,2.8c-.81,1.86-1.62,3.72-2.45,5.53s-1.64,3.6-2.44,5.32c-1.61,3.44-3.17,6.63-4.51,9.35s-2.49,5-3.3,6.56-1.28,2.48-1.28,2.48L54,120.94c1.82-1.1,4.39-2.7,7.48-4.63,1.54-1,3.2-2,4.95-3.15s3.58-2.35,5.48-3.61l2.85-1.94,2.9-2,2.88-2.15L82,102.28l.71-.56.68-.59L84.71,100,86,98.67c.42-.41.78-.9,1.17-1.35s.74-.93,1.1-1.4C89.7,94,91,92,92.17,90.12s2.3-3.82,3.32-5.64,2-3.54,2.83-5.14S100,76.26,100.63,75l1.74-3.41,1.49-3s-.49,1.11-1.39,3C102,72.54,101.46,73.71,100.82,75Z" transform="translate(-19.58 -15.32)"/><path class="cls-1" d="M72.17,29.53c-.42.45-.88,1-1.35,1.57a42.69,42.69,0,0,0-3,4.22c-.49.82-1,1.64-1.48,2.53s-.92,1.8-1.38,2.71-.81,1.86-1.17,2.8-.66,1.87-1,2.77-.53,1.8-.73,2.65-.39,1.65-.51,2.4-.25,1.43-.32,2-.14,1.14-.17,1.59C61,55.7,61,56.2,61,56.2s.16-.48.42-1.32c.12-.42.28-.93.47-1.51s.39-1.24.63-1.95.51-1.47.79-2.28.62-1.64.93-2.51.7-1.76,1.08-2.65.79-1.8,1.19-2.7.83-1.8,1.29-2.66.88-1.72,1.32-2.54c.9-1.63,1.75-3.14,2.54-4.42.38-.64.74-1.22,1.07-1.73s.6-1,.85-1.35c.47-.74.73-1.17.73-1.17s-.37.34-1,1C73,28.68,72.58,29.07,72.17,29.53Z" transform="translate(-19.58 -15.32)"/><path class="cls-1" d="M55,27.31c-.44.28-.93.61-1.44,1a38.93,38.93,0,0,0-3.33,2.88A43.12,43.12,0,0,0,47,35a40.61,40.61,0,0,0-2.65,4.3,38.27,38.27,0,0,0-1.73,4l-.29.88c-.08.28-.15.55-.22.8-.14.5-.26.94-.34,1.31-.14.73-.23,1.15-.23,1.15L42,46.43a13,13,0,0,1,.52-1.23q.15-.36.33-.75l.4-.82a38.9,38.9,0,0,1,2-3.79A42,42,0,0,1,48,35.74,42.83,42.83,0,0,1,51,31.92a38.77,38.77,0,0,1,3-3.08c.45-.46.88-.85,1.26-1.19s.72-.64,1-.87L57.2,26l-1,.57C55.85,26.77,55.47,27,55,27.31Z" transform="translate(-19.58 -15.32)"/></svg>